<svg width="33" height="33" viewBox="0 0 33 33" fill="none" xmlns="http://www.w3.org/2000/svg">
<g clip-path="url(#clip0_63_81)">
<path d="M14.8505 3.57106C16.8169 1.6047 19.4838 0.5 22.2648 0.5C28.0556 0.5 32.75 5.19442 32.75 10.9853C32.75 13.7662 31.6454 16.4331 29.679 18.3995L25.5784 22.5L22.75 19.6716L26.8506 15.5711C28.0668 14.3548 28.75 12.7053 28.75 10.9853C28.75 7.40356 25.8464 4.5 22.2648 4.5C20.5447 4.5 18.8952 5.18326 17.6789 6.3995L13.5784 10.5L10.75 7.67158L14.8505 3.57106Z" fill="white"/>
<path d="M15.8211 26.6006L19.9216 22.5L22.75 25.3284L18.6495 29.429C16.6831 31.3954 14.0162 32.5 11.2353 32.5C5.44442 32.5 0.75 27.8056 0.75 22.0148C0.75 19.2339 1.85469 16.5669 3.82106 14.6005L7.92158 10.5L10.75 13.3284L6.6495 17.4289C5.43326 18.6452 4.75 20.2947 4.75 22.0148C4.75 25.5964 7.65356 28.5 11.2353 28.5C12.9553 28.5 14.6048 27.8168 15.8211 26.6006Z" fill="white"/>
<path d="M12.1641 23.9142L24.1641 11.9143L21.3357 9.08582L9.33569 21.0858L12.1641 23.9142Z" fill="white"/>
</g>
<defs>
<clipPath id="clip0_63_81">
<rect width="32" height="32" fill="white" transform="translate(0.75 0.5)"/>
</clipPath>
</defs>
</svg>
