<svg width="38" height="27" viewBox="0 0 38 27" fill="none" xmlns="http://www.w3.org/2000/svg">
<path d="M2.27 11.575C1.29246 11.575 0.5 12.5152 0.5 13.675C0.5 14.8348 1.29246 15.775 2.27 15.775V11.575ZM35.31 15.775C36.2875 15.775 37.08 14.8348 37.08 13.675C37.08 12.5152 36.2875 11.575 35.31 11.575V15.775ZM7.77824 22.775C6.8007 22.775 6.00824 23.7152 6.00824 24.875C6.00824 26.0348 6.8007 26.975 7.77824 26.975V22.775ZM29.8041 26.975C30.7816 26.975 31.5741 26.0348 31.5741 24.875C31.5741 23.7152 30.7816 22.775 29.8041 22.775V26.975ZM7.77824 0.375C6.8007 0.375 6.00824 1.31521 6.00824 2.475C6.00824 3.63479 6.8007 4.575 7.77824 4.575V0.375ZM29.8041 4.575C30.7816 4.575 31.5741 3.63479 31.5741 2.475C31.5741 1.31521 30.7816 0.375 29.8041 0.375V4.575ZM2.27 15.775H35.31V11.575H2.27V15.775ZM7.77824 26.975H29.8041V22.775H7.77824V26.975ZM7.77824 4.575H29.8041V0.375H7.77824V4.575Z" fill="white"/>
</svg>
