<svg width="12" height="13" viewBox="0 0 12 13" fill="none" xmlns="http://www.w3.org/2000/svg">
<rect width="12" height="12" transform="translate(0 0.890991)" fill="white"/>
<path d="M5.0188 3.54908L5.3433 4.13054C5.63615 4.65528 5.5186 5.34365 5.05735 5.80489C5.05735 5.80489 4.49794 6.36439 5.51225 7.37874C6.52625 8.39274 7.0861 7.83364 7.0861 7.83364C7.54735 7.37239 8.2357 7.25484 8.76045 7.54769L9.3419 7.87219C10.1343 8.31439 10.2279 9.42559 9.5314 10.1221C9.1129 10.5406 8.6002 10.8662 8.03345 10.8877C7.0794 10.9239 5.45915 10.6824 3.83385 9.05714C2.20857 7.43184 1.96711 5.8116 2.00328 4.85754C2.02476 4.29079 2.3504 3.77811 2.76891 3.35961C3.46538 2.66313 4.57659 2.75671 5.0188 3.54908Z" fill="#101215"/>
<path d="M6.62974 1.83091C6.66284 1.62646 6.85609 1.48778 7.06054 1.52087C7.07319 1.5233 7.11394 1.53091 7.13524 1.53566C7.17794 1.54516 7.23744 1.55979 7.31164 1.5814C7.46004 1.62462 7.66734 1.69583 7.91614 1.80989C8.41429 2.03827 9.07719 2.43777 9.76509 3.12567C10.453 3.81357 10.8525 4.47648 11.0808 4.97462C11.1949 5.22343 11.2661 5.43073 11.3093 5.57912C11.3309 5.65332 11.3456 5.71284 11.3551 5.7555C11.3598 5.77683 11.3633 5.79396 11.3657 5.80662L11.3686 5.82222C11.4017 6.02664 11.2643 6.22794 11.0598 6.26104C10.856 6.29404 10.6639 6.15599 10.63 5.95254C10.629 5.94704 10.6261 5.93239 10.623 5.91854C10.6168 5.89084 10.6062 5.84693 10.5893 5.78885C10.5554 5.67269 10.4967 5.50002 10.3991 5.28718C10.2042 4.86203 9.85369 4.27494 9.23474 3.656C8.61584 3.03707 8.02874 2.68658 7.60359 2.49166C7.39074 2.39408 7.21809 2.33532 7.10189 2.30148C7.04384 2.28456 6.97084 2.26781 6.94314 2.26164C6.73964 2.22773 6.59674 2.03477 6.62974 1.83091Z" fill="#101215"/>
<path fill-rule="evenodd" clip-rule="evenodd" d="M6.74279 3.55565C6.79969 3.35651 7.00724 3.2412 7.20639 3.29809L7.10339 3.65867C7.20639 3.29809 7.20639 3.29809 7.20639 3.29809L7.20714 3.2983L7.20789 3.29852L7.20954 3.29901L7.21344 3.30017L7.22334 3.30325C7.23084 3.30566 7.24029 3.3088 7.25149 3.31278C7.27394 3.32075 7.30364 3.33208 7.34004 3.34768C7.41289 3.3789 7.51239 3.42711 7.63469 3.49947C7.87939 3.64431 8.21349 3.8849 8.60599 4.27738C8.99849 4.66987 9.23904 5.00396 9.38389 5.2487C9.45624 5.37095 9.50444 5.47048 9.53569 5.54333C9.55129 5.57973 9.56264 5.60941 9.57059 5.63186C9.57459 5.64309 9.57769 5.6525 9.58014 5.66004L9.58319 5.66994L9.58434 5.67381L9.58484 5.67548L9.58504 5.67625C9.58504 5.67625 9.58529 5.67697 9.22469 5.77999L9.58529 5.67697C9.64219 5.8761 9.52684 6.08365 9.32774 6.14055C9.13029 6.19695 8.92454 6.0841 8.86559 5.88806L8.86374 5.88267C8.86109 5.87516 8.85559 5.86037 8.84634 5.83877C8.82784 5.7956 8.79429 5.72498 8.73849 5.63069C8.62699 5.44232 8.42564 5.15769 8.07564 4.80771C7.72569 4.45774 7.44104 4.25639 7.25269 4.1449C7.15839 4.08909 7.08779 4.05554 7.04459 4.03704C7.02299 4.02779 7.00819 4.02227 7.00069 4.0196L6.99529 4.01776C6.79929 3.95882 6.68639 3.75309 6.74279 3.55565Z" fill="#101215"/>
</svg>
