<svg width="29" height="28" viewBox="0 0 29 28" fill="none" xmlns="http://www.w3.org/2000/svg">
<path d="M5.61627 23.3333H12.5922C12.5922 23.9522 12.8372 24.5457 13.2733 24.9833C13.7094 25.4208 14.3008 25.6667 14.9175 25.6667C15.5342 25.6667 16.1257 25.4208 16.5618 24.9833C16.9979 24.5457 17.2428 23.9522 17.2428 23.3333H24.2188C24.5271 23.3333 24.8229 23.2104 25.0409 22.9916C25.259 22.7728 25.3814 22.4761 25.3814 22.1667C25.3814 21.8572 25.259 21.5605 25.0409 21.3417C24.8229 21.1229 24.5271 21 24.2188 21V12.8333C24.2188 10.358 23.2388 7.98401 21.4945 6.23367C19.7502 4.48333 17.3844 3.5 14.9175 3.5C12.4507 3.5 10.0849 4.48333 8.34055 6.23367C6.59622 7.98401 5.61627 10.358 5.61627 12.8333V21C5.30791 21 5.01219 21.1229 4.79415 21.3417C4.57611 21.5605 4.45361 21.8572 4.45361 22.1667C4.45361 22.4761 4.57611 22.7728 4.79415 22.9916C5.01219 23.2104 5.30791 23.3333 5.61627 23.3333V23.3333ZM7.94159 12.8333C7.94159 10.9768 8.67655 9.19634 9.98479 7.88359C11.293 6.57083 13.0674 5.83333 14.9175 5.83333C16.7677 5.83333 18.542 6.57083 19.8503 7.88359C21.1585 9.19634 21.8935 10.9768 21.8935 12.8333V21H7.94159V12.8333Z" fill="#FF5B5B"/>
</svg>
