<svg width="29" height="28" viewBox="0 0 29 28" fill="none" xmlns="http://www.w3.org/2000/svg">
<path d="M14.6461 13.9998C15.2882 13.9998 15.8087 13.4775 15.8087 12.8332C15.8087 12.1888 15.2882 11.6665 14.6461 11.6665C14.0039 11.6665 13.4834 12.1888 13.4834 12.8332C13.4834 13.4775 14.0039 13.9998 14.6461 13.9998Z" fill="#2D416D"/>
<path d="M9.99542 13.9998C10.6375 13.9998 11.1581 13.4775 11.1581 12.8332C11.1581 12.1888 10.6375 11.6665 9.99542 11.6665C9.3533 11.6665 8.83276 12.1888 8.83276 12.8332C8.83276 13.4775 9.3533 13.9998 9.99542 13.9998Z" fill="#2D416D"/>
<path d="M19.2967 13.9998C19.9388 13.9998 20.4594 13.4775 20.4594 12.8332C20.4594 12.1888 19.9388 11.6665 19.2967 11.6665C18.6546 11.6665 18.134 12.1888 18.134 12.8332C18.134 13.4775 18.6546 13.9998 19.2967 13.9998Z" fill="#2D416D"/>
<path d="M4.24016 25.515C4.48351 25.6157 4.74428 25.6673 5.00752 25.6667C5.26713 25.668 5.52436 25.617 5.764 25.5168C6.00364 25.4166 6.22083 25.2692 6.40271 25.0833L9.30935 22.1667H20.4592C22.001 22.1667 23.4796 21.5521 24.5698 20.4581C25.6601 19.3642 26.2725 17.8804 26.2725 16.3333V9.33333C26.2725 7.78624 25.6601 6.30251 24.5698 5.20854C23.4796 4.11458 22.001 3.5 20.4592 3.5H8.83266C7.29088 3.5 5.81225 4.11458 4.72205 5.20854C3.63184 6.30251 3.01937 7.78624 3.01937 9.33333V23.6717C3.01569 24.0662 3.13006 24.4528 3.3477 24.7814C3.56534 25.1101 3.87623 25.3656 4.24016 25.515V25.515ZM5.34469 9.33333C5.34469 8.40508 5.71217 7.51484 6.36629 6.85846C7.02041 6.20208 7.90759 5.83333 8.83266 5.83333H20.4592C21.3843 5.83333 22.2715 6.20208 22.9256 6.85846C23.5797 7.51484 23.9472 8.40508 23.9472 9.33333V16.3333C23.9472 17.2616 23.5797 18.1518 22.9256 18.8082C22.2715 19.4646 21.3843 19.8333 20.4592 19.8333H8.83266C8.67965 19.8324 8.52796 19.8619 8.38631 19.9199C8.24465 19.978 8.11581 20.0635 8.00717 20.1717L5.34469 22.855V9.33333Z" fill="#2D416D"/>
</svg>
