<svg width="20" height="16" viewBox="0 0 20 16" fill="none" xmlns="http://www.w3.org/2000/svg">
<path d="M17.3519 4.35788L17.3639 4.86448C17.3639 10.0376 13.4068 15.9975 6.16986 15.9975C3.94865 15.9975 1.8812 15.3499 0.139404 14.2393C0.447051 14.275 0.760611 14.2949 1.07825 14.2949C2.92196 14.2949 4.61783 13.6691 5.96412 12.6202C4.2423 12.5884 2.79008 11.456 2.28873 9.90252C2.5304 9.9482 2.77411 9.9701 3.02978 9.9701C3.38934 9.9701 3.73687 9.92442 4.06647 9.83502C2.26671 9.47343 0.910426 7.89411 0.910426 5.99889V5.94922C1.44174 6.24324 2.04698 6.41805 2.69218 6.43994C1.63749 5.73867 0.942361 4.54073 0.942361 3.18386C0.942361 2.46671 1.13613 1.79523 1.47368 1.21715C3.41326 3.58518 6.31363 5.14267 9.58354 5.30559C9.5156 5.01949 9.48169 4.71953 9.48169 4.41362C9.48169 2.25419 11.2435 0.501953 13.4168 0.501953C14.5473 0.501953 15.5701 0.976723 16.2891 1.7376C17.184 1.56076 18.027 1.23499 18.788 0.787991C18.4944 1.70185 17.8712 2.46867 17.0582 2.95337C17.8512 2.85999 18.6123 2.6474 19.3174 2.33751C18.7901 3.12021 18.1209 3.80959 17.3519 4.35788Z" fill="#101215"/>
</svg>
