<svg width="22" height="24" viewBox="0 0 22 24" fill="none" xmlns="http://www.w3.org/2000/svg">
<path fill-rule="evenodd" clip-rule="evenodd" d="M11 15.237L18.4181 23.3296C19.2375 24.2235 20.566 24.2235 21.3854 23.3296C22.2049 22.4357 22.2049 20.9865 21.3854 20.0926L13.9673 12L21.3854 3.90745C22.2049 3.01358 22.2049 1.56431 21.3854 0.670429C20.566 -0.223441 19.2375 -0.223441 18.4181 0.670429L11 8.76299L3.58181 0.670414C2.76242 -0.223471 1.43392 -0.223471 0.614545 0.670414C-0.204848 1.5643 -0.204848 3.01355 0.614545 3.90744L8.03271 12L0.614545 20.0926C-0.204848 20.9865 -0.204848 22.4357 0.614545 23.3296C1.43392 24.2235 2.76242 24.2235 3.58181 23.3296L11 15.237Z" fill="white"/>
</svg>
