<svg width="40" height="39" viewBox="0 0 40 39" fill="none" xmlns="http://www.w3.org/2000/svg">
<path d="M20 0C16.6913 0 14 2.62405 14 5.85C14 9.07596 16.6913 11.7 20 11.7C23.3087 11.7 26 9.07596 26 5.85C26 2.62405 23.3087 0 20 0ZM20 9.75C17.7907 9.75 16 8.00406 16 5.85C16 3.69594 17.7907 1.95 20 1.95C22.2093 1.95 24 3.69594 24 5.85C24 8.00406 22.2093 9.75 20 9.75Z" fill="#243863"/>
<path d="M28 19.5H26.76L25.968 15.2516C25.7946 14.3241 24.9666 13.65 24 13.65H16C15.0334 13.65 14.2053 14.3241 14.0327 15.2516L13.24 19.5H12C10.8953 19.5 10 20.373 10 21.45V25.35C10 26.4271 10.8953 27.3 12 27.3H14V37.05C14 38.1271 14.8953 39 16 39H24C25.1047 39 26 38.1271 26 37.05V27.3H28C29.1047 27.3 30 26.4271 30 25.35V21.45C30 20.373 29.1047 19.5 28 19.5ZM21 15.6H24L24.7273 19.5H21V15.6ZM16 15.6H19V19.5H15.2727L16 15.6ZM24 37.05H16V27.3H24V37.05ZM28 25.35H12V21.45H28V25.35Z" fill="#243863"/>
</svg>
