<svg width="29" height="28" viewBox="0 0 29 28" fill="none" xmlns="http://www.w3.org/2000/svg">
<path d="M23.9663 6.12494H23.0943V2.62494C23.0943 2.47256 23.0547 2.32283 22.9793 2.19056C22.9039 2.05829 22.7954 1.94807 22.6645 1.87081C22.5336 1.79355 22.3848 1.75193 22.233 1.75007C22.0812 1.7482 21.9315 1.78616 21.7987 1.86019L14.3744 5.99902L6.95008 1.86019C6.81735 1.78616 6.66766 1.7482 6.51581 1.75007C6.36397 1.75193 6.21524 1.79355 6.08435 1.87081C5.95346 1.94807 5.84495 2.05829 5.76955 2.19056C5.69415 2.32283 5.65449 2.47256 5.65448 2.62494V6.12494H4.78248C4.08892 6.1257 3.42397 6.40251 2.93355 6.89463C2.44312 7.38674 2.16727 8.05398 2.1665 8.74994V11.3749C2.16727 12.0709 2.44312 12.7381 2.93355 13.2302C3.42397 13.7224 4.08892 13.9992 4.78248 13.9999H5.65448V23.6249C5.65524 24.3209 5.93109 24.9881 6.42152 25.4802C6.91195 25.9724 7.57689 26.2492 8.27046 26.2499H20.4784C21.1719 26.2492 21.8369 25.9724 22.3273 25.4802C22.8177 24.9881 23.0936 24.3209 23.0943 23.6249V13.9999H23.9663C24.6599 13.9992 25.3248 13.7224 25.8153 13.2302C26.3057 12.7381 26.5816 12.0709 26.5823 11.3749V8.74994C26.5816 8.05398 26.3057 7.38674 25.8153 6.89463C25.3248 6.40251 24.6599 6.1257 23.9663 6.12494ZM21.3504 6.12494H17.7397L21.3504 4.11244V6.12494ZM7.39846 4.11244L11.0091 6.12494H7.39846V4.11244ZM7.39846 23.6249V13.9999H13.5024V24.4999H8.27046C8.03928 24.4996 7.81766 24.4073 7.65419 24.2433C7.49073 24.0793 7.39876 23.8569 7.39846 23.6249ZM21.3504 23.6249C21.3501 23.8569 21.2581 24.0793 21.0946 24.2433C20.9312 24.4073 20.7095 24.4996 20.4784 24.4999H15.2464V13.9999H21.3504V23.6249ZM24.8383 11.3749C24.838 11.6069 24.7461 11.8293 24.5826 11.9933C24.4191 12.1574 24.1975 12.2496 23.9663 12.2499H4.78248C4.55131 12.2496 4.32969 12.1574 4.16622 11.9933C4.00276 11.8293 3.91079 11.6069 3.91049 11.3749V8.74994C3.91079 8.51796 4.00276 8.29558 4.16622 8.13155C4.32969 7.96752 4.55131 7.87524 4.78248 7.87494H23.9663C24.1975 7.87524 24.4191 7.96752 24.5826 8.13155C24.7461 8.29558 24.838 8.51796 24.8383 8.74994V11.3749Z" fill="#5E6C93"/>
</svg>
