<svg width="31" height="21" viewBox="0 0 31 21" fill="none" xmlns="http://www.w3.org/2000/svg">
<path d="M1.47968 8.87364C0.662481 8.87364 0 9.60179 0 10.5C0 11.3981 0.662481 12.1263 1.47968 12.1263V8.87364ZM29.1003 12.1263C29.9175 12.1263 30.58 11.3981 30.58 10.5C30.58 9.60179 29.9175 8.87364 29.1003 8.87364V12.1263ZM6.08443 17.5473C5.26724 17.5473 4.60476 18.2755 4.60476 19.1736C4.60476 20.0718 5.26724 20.8 6.08443 20.8V17.5473ZM24.4975 20.8C25.3147 20.8 25.9772 20.0718 25.9772 19.1736C25.9772 18.2755 25.3147 17.5473 24.4975 17.5473V20.8ZM6.08443 0.199951C5.26724 0.199951 4.60476 0.928085 4.60476 1.82627C4.60476 2.72445 5.26724 3.45258 6.08443 3.45258V0.199951ZM24.4975 3.45258C25.3147 3.45258 25.9772 2.72445 25.9772 1.82627C25.9772 0.928085 25.3147 0.199951 24.4975 0.199951V3.45258ZM1.47968 12.1263H29.1003V8.87364H1.47968V12.1263ZM6.08443 20.8H24.4975V17.5473H6.08443V20.8ZM6.08443 3.45258H24.4975V0.199951H6.08443V3.45258Z" fill="#101215"/>
</svg>
