<svg width="9" height="10" viewBox="0 0 9 10" fill="none" xmlns="http://www.w3.org/2000/svg">
<path fill-rule="evenodd" clip-rule="evenodd" d="M2.625 1.42224C2.01939 1.42224 1.47174 1.5736 1.07425 1.9427C0.672983 2.31531 0.46875 2.86863 0.46875 3.57849V6.20349C0.46875 6.91337 0.672983 7.46668 1.07425 7.83928C1.47174 8.20839 2.01939 8.35974 2.625 8.35974H6.375C6.98063 8.35974 7.52828 8.20839 7.92574 7.83928C8.32702 7.46668 8.53125 6.91337 8.53125 6.20349V3.57849C8.53125 2.86863 8.32702 2.31531 7.92574 1.9427C7.52828 1.5736 6.98063 1.42224 6.375 1.42224H2.625ZM7.21069 3.52685C7.33358 3.43188 7.35623 3.25525 7.26124 3.13234C7.16629 3.00942 6.98966 2.98678 6.86674 3.08176L4.78658 4.68909C4.61779 4.81955 4.38218 4.81955 4.21335 4.68909L2.13322 3.08176C2.01031 2.98678 1.83368 3.00942 1.73871 3.13234C1.64373 3.25525 1.66638 3.43188 1.78929 3.52685L3.86944 5.13422C4.24084 5.42117 4.75913 5.42117 5.13053 5.13422L7.21069 3.52685Z" fill="#101215"/>
</svg>
