<svg width="21" height="20" viewBox="0 0 21 20" fill="none" xmlns="http://www.w3.org/2000/svg">
<path fill-rule="evenodd" clip-rule="evenodd" d="M6.85201 0.0596729C7.91867 0.0116031 8.25951 0 10.9753 0C13.6912 0 14.032 0.0116031 15.0987 0.0596729C16.7237 0.133435 18.1512 0.529597 19.297 1.66918C20.4428 2.80877 20.8412 4.22849 20.9153 5.84463C20.9637 6.90549 20.9753 7.24446 20.9753 9.94549C20.9753 12.6465 20.9637 12.9855 20.9153 14.0463C20.8412 15.6625 20.4428 17.0822 19.297 18.2218C18.1512 19.3614 16.7237 19.7575 15.0987 19.8313C14.032 19.8794 13.6912 19.891 10.9753 19.891C8.25951 19.891 7.91867 19.8794 6.85201 19.8313C5.22701 19.7575 3.79951 19.3614 2.65368 18.2218C1.50784 17.0822 1.10951 15.6625 1.03534 14.0463C0.987008 12.9855 0.975342 12.6465 0.975342 9.94549C0.975342 7.24446 0.987008 6.90549 1.03534 5.84463C1.10951 4.22849 1.50784 2.80877 2.65368 1.66918C3.79951 0.529597 5.22701 0.133435 6.85201 0.0596729ZM15.0153 1.85001C13.9611 1.80194 13.6445 1.79199 10.9745 1.79199C8.30446 1.79199 7.98779 1.80194 6.93362 1.85001C5.79529 1.90139 4.73946 2.12848 3.92696 2.93655C3.11446 3.74462 2.88612 4.7947 2.83446 5.92683C2.78612 6.97525 2.77612 7.29019 2.77612 9.94564C2.77612 12.6011 2.78612 12.916 2.83446 13.9644C2.88612 15.0966 3.11446 16.1467 3.92696 16.9547C4.73946 17.7628 5.79529 17.9899 6.93362 18.0413C7.98779 18.0893 8.30446 18.0993 10.9745 18.0993C13.6445 18.0993 13.9611 18.0893 15.0153 18.0413C16.1536 17.9899 17.2095 17.7628 18.022 16.9547C18.8345 16.1467 19.0628 15.0966 19.1145 13.9644C19.1628 12.916 19.1728 12.6011 19.1728 9.94564C19.1728 7.29019 19.1628 6.97525 19.1145 5.92683C19.0628 4.7947 18.8345 3.74462 18.022 2.93655C17.2095 2.12848 16.1536 1.90139 15.0153 1.85001ZM5.83862 9.9449C5.83862 7.12453 8.13779 4.83789 10.9736 4.83789C13.8094 4.83789 16.1086 7.12453 16.1086 9.9449C16.1086 12.7653 13.8094 15.0519 10.9736 15.0519C8.13779 15.0519 5.83862 12.7653 5.83862 9.9449ZM7.6394 9.94504C7.6394 11.7758 9.1319 13.2602 10.9727 13.2602C12.8136 13.2602 14.3061 11.7758 14.3061 9.94504C14.3061 8.11425 12.8136 6.62988 10.9727 6.62988C9.1319 6.62988 7.6394 8.11425 7.6394 9.94504ZM17.5121 4.63682C17.5121 5.29595 16.9748 5.83028 16.3121 5.83028C15.6493 5.83028 15.1121 5.29595 15.1121 4.63682C15.1121 3.97769 15.6493 3.44336 16.3121 3.44336C16.9748 3.44336 17.5121 3.97769 17.5121 4.63682Z" fill="#101215"/>
</svg>
