<svg width="29" height="35" viewBox="0 0 29 35" fill="none" xmlns="http://www.w3.org/2000/svg">
<g clip-path="url(#clip0_201_339)">
<path d="M5.39949 20.7042C5.71559 20.7407 5.89917 20.9348 6.01572 21.2249C6.62961 22.7546 7.24389 24.2834 7.8605 25.8119C7.93612 25.9993 8.02655 26.18 8.17193 26.3602C8.19259 26.2332 8.21714 26.1066 8.2339 25.9787C8.33213 25.2191 8.09398 24.5341 7.83361 23.85C7.40993 22.7361 6.98157 21.6236 6.59453 20.4946C6.51618 20.2666 6.60583 19.9685 6.63623 19.7053C6.64013 19.6709 6.78396 19.6093 6.81202 19.6323C6.97494 19.766 7.19088 19.8901 7.26415 20.0746C7.68823 21.1427 8.08579 22.2239 8.47283 23.3084C8.56326 23.562 8.6494 23.575 8.85169 23.4505C10.4934 22.441 12.1414 21.4429 13.7823 20.4318C13.8622 20.3827 13.9429 20.2414 13.9402 20.1454C13.9156 19.2534 13.8723 18.3617 13.8357 17.47C13.7979 16.5457 13.7577 15.6209 13.7266 14.6965C13.6969 13.8246 13.6794 12.9522 13.6521 12.0803C13.6396 11.6753 13.5882 11.6476 13.2351 11.6003C12.4158 11.49 11.6 11.3508 10.7818 11.233C10.1259 11.1387 9.46753 11.0658 8.81194 10.9673C8.57301 10.9312 8.32628 10.883 8.1084 10.779C7.7576 10.6113 7.50932 10.2999 7.50854 9.87982C7.50776 9.41744 7.77826 9.10387 8.16998 8.93409C8.31069 8.87288 8.47167 8.83893 8.62368 8.83809C10.2288 8.83222 11.8342 8.82216 13.4389 8.85025C13.6942 8.85486 13.9464 9.04182 14.245 9.16214C13.9573 9.5302 13.7137 9.72094 13.3224 9.71591C11.8054 9.69663 10.2884 9.70963 8.77101 9.71088C8.68292 9.71088 8.59016 9.69453 8.5083 9.71927C8.4514 9.73687 8.4093 9.81233 8.36097 9.8618C8.40813 9.91378 8.44945 10.0014 8.50363 10.0119C8.95225 10.0995 9.40283 10.1787 9.85418 10.2496C10.6817 10.3799 11.5099 10.5061 12.339 10.6273C12.7919 10.6935 13.2452 10.7593 13.7001 10.7996C14.1986 10.8436 14.3814 11.0503 14.3985 11.5969C14.4406 12.9514 14.4901 14.3058 14.5435 15.6599C14.5876 16.7825 14.641 17.9052 14.6909 19.0278C14.7142 19.5527 14.7345 20.0775 14.7665 20.602C14.7715 20.6862 14.8093 20.8007 14.8682 20.8426C15.1488 21.0417 15.4423 21.2203 15.7795 21.4374C15.7873 21.2597 15.7947 21.1394 15.7978 21.0191C15.8169 20.2833 15.8294 19.5476 15.859 18.8123C15.8645 18.6732 15.9101 18.5139 15.988 18.4066C16.0531 18.3164 16.1942 18.2426 16.2983 18.2472C16.3832 18.251 16.4951 18.365 16.5372 18.4602C16.5887 18.5767 16.5933 18.7239 16.5941 18.858C16.598 19.795 16.6011 20.7319 16.591 21.6688C16.5887 21.8755 16.6444 21.9958 16.8194 22.0893C17.0868 22.2323 17.3397 22.4066 17.641 22.594C17.6831 22.3081 17.7256 22.0683 17.7529 21.8269C17.8351 21.1004 17.9341 20.3752 17.9844 19.6462C18.0542 18.6317 18.0756 17.6134 18.1364 16.5977C18.1867 15.7584 18.4677 14.9887 18.81 14.2421C18.8957 14.0547 18.9799 13.8653 19.0504 13.6707C19.167 13.3509 19.075 13.078 18.8174 12.8696C18.5843 12.681 18.3551 12.4848 18.1403 12.2727C17.9474 12.0824 17.9084 11.8279 17.9454 11.5491C18.2436 11.485 18.5133 11.4753 18.7507 11.7097C19.0594 12.0153 19.3915 12.2949 19.6866 12.6147C19.9485 12.899 20.0736 13.2473 19.9009 13.6489C19.6269 14.2866 19.3393 14.9179 19.0797 15.5622C18.9881 15.7894 18.9624 16.0472 18.9066 16.2912C18.9472 16.3168 18.9877 16.3424 19.0282 16.3684C19.1007 16.2988 19.1978 16.2434 19.2422 16.1571C19.7127 15.2403 20.18 14.3209 20.6376 13.3966C20.9229 12.8206 20.8426 12.507 20.3913 12.0945C19.6624 11.4288 18.9507 10.7417 18.2284 10.068C17.9907 9.84629 17.8694 9.58093 17.9037 9.23256C18.3294 9.12818 18.6615 9.29335 18.9592 9.60273C19.1966 9.84922 19.4511 10.076 19.7107 10.3238C20.1231 9.92133 20.2638 9.11141 21.048 9.33695C21.1782 10.1012 20.5581 10.3137 20.1484 10.7384C20.4618 11.044 20.7592 11.3399 21.0628 11.6283C21.6058 12.1436 21.7223 12.7162 21.4616 13.4356C21.2581 13.9973 21.1786 14.58 21.2585 15.19C21.3181 15.6465 21.3337 16.1101 21.3544 16.5712C21.3906 17.39 21.4058 18.2099 21.4483 19.0282C21.5052 20.1169 21.5808 21.2048 21.6459 22.293C21.6705 22.7014 21.6869 23.1101 21.7091 23.5184C21.7668 24.5874 21.8139 25.6572 21.8895 26.7249C21.9164 27.1026 21.7601 27.3592 21.4815 27.6853C21.3563 27.4619 21.1856 27.2808 21.1533 27.075C21.0699 26.5493 21.043 26.0127 21.0032 25.4799C20.9736 25.0829 20.9556 24.6846 20.9385 24.2868C20.9054 23.531 20.8835 22.7747 20.8434 22.0193C20.7857 20.9298 20.7109 19.8415 20.6524 18.752C20.6115 17.9861 20.5881 17.2193 20.5522 16.453C20.5417 16.2241 20.5152 15.9961 20.4883 15.6716C20.309 15.9974 20.1925 16.2556 20.0346 16.4799C19.936 16.6199 19.7898 16.7469 19.6398 16.8152C19.1619 17.0324 18.9082 17.4378 18.8708 18.0033C18.8185 18.7864 18.7289 19.5669 18.6603 20.3487C18.6053 20.975 18.5578 21.6018 18.5075 22.2285C18.5001 22.3228 18.5024 22.418 18.4923 22.5119C18.428 23.1 18.4097 23.1415 18.9312 23.3939C19.5681 23.702 19.798 24.1321 19.7637 24.9156C19.6795 26.8377 19.7021 28.7652 19.6955 30.6906C19.6947 30.9455 19.6195 31.0935 19.4164 31.2168C17.6691 32.2744 15.9257 33.3392 14.1826 34.4053C14.0095 34.5109 13.8653 34.5444 13.6716 34.4216C11.9204 33.3086 10.1637 32.2048 8.40346 31.1082C8.2187 30.9933 8.14738 30.8684 8.15088 30.6366C8.16453 29.7315 8.15985 28.826 8.15556 27.9209C8.15517 27.8371 8.12672 27.6967 8.07917 27.6778C7.58572 27.4841 7.48009 26.9811 7.3043 26.551C6.62688 24.8934 5.97518 23.2237 5.29659 21.567C5.15861 21.2299 5.20733 20.9671 5.39949 20.7038V20.7042ZM12.4021 26.7035C12.4263 26.696 12.4501 26.6885 12.4742 26.6809C12.6917 26.9718 12.9186 27.2552 13.124 27.5558C13.2779 27.7805 13.4904 27.7512 13.6786 27.7C13.7394 27.6832 13.7772 27.4552 13.7792 27.3231C13.7885 26.7027 13.7745 26.0819 13.7839 25.4618C13.7885 25.1609 13.6092 25.1952 13.4299 25.1906C13.244 25.186 13.1029 25.2036 13.1193 25.4715C13.1364 25.7578 13.1232 26.0462 13.1232 26.3338C13.0936 26.3518 13.064 26.3694 13.0343 26.3875C13.0148 26.3388 13.0035 26.2831 12.9743 26.2424C12.7537 25.9343 12.5475 25.6098 12.2969 25.3323C12.2053 25.2309 12.0049 25.2212 11.8541 25.2204C11.8175 25.2204 11.7516 25.4174 11.7473 25.5264C11.7325 25.8836 11.7395 26.2416 11.7391 26.5992C11.7387 26.9643 11.7391 27.329 11.7391 27.7252C11.8794 27.7252 11.9765 27.7143 12.0708 27.7273C12.3226 27.7621 12.4329 27.6673 12.4068 27.3797C12.3865 27.1567 12.4029 26.9295 12.4029 26.7044L12.4021 26.7035ZM16.2379 26.5145C16.269 25.7469 15.5784 25.1881 15.1106 25.1818C14.4862 25.1739 13.9059 25.8127 13.9082 26.509C13.9101 27.1705 14.432 27.7382 15.0444 27.7457C15.7035 27.7541 16.2363 27.2041 16.2379 26.5145ZM10.1235 29.2767C10.1664 29.2825 10.1933 29.2775 10.2023 29.2888C10.2459 29.3441 10.2884 29.4012 10.3246 29.4619C10.5219 29.7935 11.0664 29.8149 11.2956 29.5097C11.4098 29.3576 11.577 29.3131 11.6678 29.5143C11.7839 29.7722 11.9356 29.7214 12.1418 29.6514C12.019 29.257 11.9048 28.8788 11.7824 28.5041C11.7305 28.3452 11.729 28.1448 11.4873 28.1427C11.2301 28.1402 11.2293 28.3577 11.1724 28.5238C11.0664 28.8331 10.9728 29.1475 10.8625 29.4951C10.6934 29.3043 10.6224 29.1811 10.7409 28.9622C10.9448 28.5866 10.7175 28.175 10.3172 28.1511C10.1613 28.1419 10.0042 28.1569 9.84834 28.1498C9.66865 28.1414 9.60746 28.2332 9.61097 28.416C9.61798 28.7627 9.61993 29.1098 9.6137 29.4565C9.61058 29.6267 9.66203 29.7093 9.83041 29.7068C9.98281 29.7047 10.1071 29.6933 10.0951 29.4766C10.0916 29.4108 10.1126 29.3433 10.1227 29.2771L10.1235 29.2767ZM16.7403 29.6745C16.7403 29.2704 16.7411 28.8839 16.7403 28.4978C16.7395 28.1276 16.6912 28.0936 16.3127 28.2144V28.8432C16.1338 28.6005 16.0153 28.4097 15.866 28.2521C15.8033 28.1855 15.6739 28.1645 15.5788 28.1741C15.5409 28.1779 15.4895 28.3183 15.4872 28.398C15.4766 28.7547 15.4696 29.1123 15.4903 29.4678C15.495 29.5504 15.6006 29.6707 15.6801 29.695C15.838 29.7432 15.9062 29.6321 15.8968 29.4607C15.8906 29.3437 15.8956 29.2259 15.8956 29.0603C16.3109 29.4857 16.5923 29.6901 16.7399 29.6736L16.7403 29.6745ZM17.6882 29.3634C17.5483 29.2595 17.3818 29.2016 17.3518 29.0981C17.3125 28.9618 17.3417 28.7614 17.4165 28.6441C17.4575 28.5803 17.6547 28.6416 17.7798 28.6281C17.8901 28.616 17.9985 28.5783 18.1076 28.5523C18.0807 28.4646 18.0776 28.3489 18.0222 28.2944C17.8005 28.0752 17.3811 28.0924 17.1261 28.3112C16.8728 28.5288 16.7937 28.948 16.9414 29.288C17.0829 29.6133 17.3931 29.7717 17.7147 29.6917C17.7845 29.6741 17.8644 29.6678 17.9326 29.6862C18.1801 29.7529 18.283 29.6556 18.2612 29.3856C18.2538 29.2917 18.2775 29.1916 18.2549 29.1035C18.2323 29.0159 18.1746 28.8767 18.1228 28.8713C17.9657 28.8554 17.804 28.8935 17.6442 28.9107C17.6551 29.0222 17.6656 29.1337 17.6882 29.3639V29.3634ZM12.8476 29.3488C12.7221 29.2523 12.5631 29.1932 12.5296 29.088C12.4898 28.9635 12.5152 28.7526 12.5939 28.6654C12.6601 28.5925 12.8461 28.6558 12.9759 28.6348C13.0916 28.6164 13.2031 28.5653 13.3161 28.5284C13.2779 28.4462 13.2588 28.3385 13.1984 28.2869C12.9299 28.0593 12.574 28.0815 12.3121 28.3242C12.0427 28.5741 11.9827 28.9698 12.1601 29.327C12.3152 29.6401 12.606 29.7634 12.9478 29.672C13.0067 29.656 13.076 29.672 13.138 29.6866C13.3294 29.7311 13.4459 29.6866 13.4272 29.4414C13.4194 29.3374 13.4416 29.2293 13.4257 29.1274C13.4112 29.0356 13.3719 28.8797 13.3294 28.8742C13.1719 28.8537 13.0051 28.8683 12.8507 28.909C12.8262 28.9157 12.8472 29.1228 12.8472 29.3479L12.8476 29.3488ZM14.8187 28.5665C14.531 28.1431 14.174 28.0442 13.861 28.2207C13.5149 28.416 13.3769 28.839 13.5262 29.2456C13.6525 29.5885 13.9823 29.768 14.3284 29.6879C14.3915 29.6732 14.4648 29.6653 14.5248 29.685C14.7887 29.7709 14.8596 29.6426 14.8378 29.3852C14.8281 29.2708 14.8487 29.1517 14.8292 29.0402C14.8175 28.9727 14.7571 28.8662 14.7139 28.8637C14.563 28.8549 14.4013 28.8579 14.2641 28.914C14.2259 28.9296 14.2582 29.1446 14.2582 29.353C14.1347 29.2532 13.9795 29.1903 13.9448 29.083C13.9047 28.9581 13.9265 28.7472 14.0045 28.6617C14.0699 28.59 14.2559 28.6537 14.3872 28.6416C14.5131 28.6302 14.6371 28.5988 14.8183 28.5657L14.8187 28.5665ZM15.3636 29.6498C15.3636 29.2414 15.3617 28.8235 15.3648 28.406C15.3659 28.2521 15.3453 28.144 15.1617 28.1452C14.9672 28.1465 14.9403 28.2584 14.9446 28.4278C14.9524 28.7422 14.9489 29.057 14.9532 29.3714C14.9578 29.7315 14.9972 29.76 15.364 29.6502L15.3636 29.6498Z" fill="white"/>
<path d="M1.57546 26.9404C2.0919 26.712 2.08878 26.1934 2.20026 25.7553C2.55963 24.3447 2.90497 22.9303 3.25381 21.5167C3.44909 20.7261 4.00724 20.2486 4.54473 19.7413C5.12939 19.1892 5.70041 18.6174 6.2492 18.0243C6.56141 17.6868 6.68341 17.2407 6.67873 16.7574C6.6721 16.0837 6.69627 15.4092 6.67094 14.7368C6.63625 13.807 6.61715 12.8655 6.23517 12.0031C6.00053 11.4737 5.70041 10.9778 5.46732 10.4475C5.35156 10.1838 5.31999 9.87691 5.24281 9.55873C5.61076 9.52436 5.85748 9.60149 6.05783 9.86098C6.75902 10.7694 7.17257 11.8082 7.3542 12.9711C7.56507 14.3189 7.49842 15.675 7.47932 17.027C7.46607 17.963 7.03186 18.6862 6.33378 19.2534C5.76082 19.7187 5.18864 20.1991 4.68622 20.747C4.06921 21.4198 3.80456 22.3077 3.60149 23.2132C3.32904 24.431 3.05931 25.6501 2.75568 26.8591C2.59705 27.4908 2.13166 27.8635 1.62067 27.8669C0.933112 27.8715 0.361318 27.0586 0.530089 26.294C0.907388 24.5861 1.28547 22.8783 1.68225 21.1759C1.93521 20.091 2.47856 19.162 3.09011 18.2707C3.38282 17.8444 3.72465 17.4126 3.86575 16.9234C3.99788 16.4656 3.8942 15.9286 3.8942 15.4268C3.86146 15.4155 3.82911 15.4038 3.79637 15.3925C3.70633 15.4897 3.61123 15.5832 3.52665 15.6855C3.28655 15.976 3.06048 16.2803 2.81103 16.5608C2.39631 17.0274 1.98511 17.0747 1.44021 16.744C0.966633 16.4568 0.794354 16.0049 0.946755 15.4151C1.19075 14.4706 1.43085 13.5245 1.69512 12.5867C1.81477 12.1624 2.04201 11.7852 2.47544 11.6862C3.02852 11.56 3.53717 12.0924 3.48417 12.7133C3.46117 12.9828 3.40543 13.2495 3.35632 13.5157C3.28967 13.8753 3.04606 14.0527 2.7475 14.1717C2.36084 13.7621 2.53975 13.3044 2.64421 12.8487C2.66448 12.7607 2.63719 12.66 2.63174 12.5649C2.59588 12.5649 2.56002 12.564 2.52416 12.5636C2.25795 13.5752 1.98705 14.5855 1.7337 15.6008C1.70681 15.7085 1.75748 15.8708 1.82569 15.9613C1.86389 16.0125 2.02252 15.9974 2.1071 15.9601C2.22754 15.9068 2.35383 15.8276 2.43607 15.722C3.11973 14.8458 3.79364 13.9613 4.47029 13.0788C4.56305 12.9577 4.64958 12.8302 4.74547 12.7124C4.92281 12.4949 5.14927 12.4442 5.39755 12.4857C5.53241 12.8541 5.45563 13.1287 5.19058 13.3911C4.87916 13.6993 4.72754 14.1235 4.70922 14.5712C4.68349 15.208 4.67881 15.8481 4.71233 16.4841C4.74663 17.1368 4.54278 17.6658 4.14717 18.1416C3.01878 19.4982 2.38813 21.1101 2.05604 22.8774C1.84518 23.9992 1.61482 25.1173 1.38213 26.2345C1.32171 26.525 1.43475 26.73 1.5739 26.9404H1.57546Z" fill="white"/>
<path d="M28.4999 12.9786C28.4461 13.1488 28.3884 13.451 28.2613 13.7143C27.7901 14.691 27.2974 15.6556 26.8071 16.6215C26.7681 16.6982 26.6987 16.7816 26.6259 16.8093C26.0498 17.0302 25.9839 17.5647 25.9215 18.1034C25.8268 18.9225 25.7313 19.7417 25.6409 20.5616C25.5594 21.2999 25.4838 22.0389 25.4067 22.7776C25.324 23.5682 25.2422 24.3588 25.1603 25.1491C25.096 25.7728 25.02 26.3954 24.9728 27.0208C24.9389 27.4702 24.829 27.6425 24.5125 27.6333C24.2233 27.6249 24.0807 27.4597 24.1192 27.1441C24.2451 26.107 24.3858 25.0719 24.5082 24.0344C24.5963 23.2873 24.661 22.537 24.7433 21.7891C24.8314 20.9892 24.9307 20.1906 25.0208 19.3908C25.1007 18.6844 25.1771 17.9772 25.2484 17.27C25.2585 17.169 25.2628 17.047 25.2211 16.9627C24.8407 16.1893 25.064 15.4875 25.4129 14.7887C25.6109 14.3926 25.7789 13.9796 25.9707 13.5801C26.0743 13.3642 26.0233 13.1982 25.865 13.054C25.5828 12.7966 25.2991 12.5409 25.0134 12.2877C24.8602 12.1523 24.7082 12.0257 24.7401 11.7721C24.7838 11.425 25.1252 11.2376 25.3669 11.4522C25.7504 11.7922 26.1301 12.1393 26.4914 12.5057C26.9084 12.9283 26.9634 13.3445 26.7151 13.9017C26.4583 14.4777 26.1948 15.0507 25.9488 15.6317C25.8869 15.7785 25.8693 15.9516 25.8541 16.1147C25.8479 16.1822 25.9017 16.2559 25.9282 16.3272C25.9964 16.2836 26.093 16.2576 26.1285 16.1931C26.2875 15.9046 26.4325 15.607 26.5767 15.3098C26.9155 14.6131 27.2534 13.9163 27.5863 13.2167C27.7336 12.9065 27.6681 12.548 27.3723 12.2546C26.8921 11.7775 26.3908 11.3256 25.8985 10.8628C25.5676 10.5518 25.2379 10.2394 24.9058 9.93007C24.7585 9.79299 24.6778 9.6253 24.7733 9.43037C24.8773 9.21783 25.0808 9.23544 25.2371 9.3176C25.4877 9.44923 25.736 9.60434 25.9508 9.79466C26.6056 10.3748 27.2464 10.9731 27.8872 11.5713C28.2465 11.9066 28.4831 12.3162 28.4983 12.9781L28.4999 12.9786Z" fill="white"/>
<path d="M2.72175 6.70386C3.8057 6.77848 4.75402 7.76781 4.7396 8.9437C4.72556 10.115 3.81428 11.0871 2.69252 11.0951C1.56413 11.103 0.674281 10.063 0.681687 8.93154C0.689872 7.68984 1.6378 6.7571 2.72136 6.70428L2.72175 6.70386ZM2.68667 7.57372C1.9843 7.57707 1.47058 8.1363 1.47292 8.89549C1.47526 9.68025 1.99093 10.2579 2.68706 10.2562C3.42957 10.2541 3.93238 9.70372 3.92692 8.89884C3.92147 8.1145 3.41242 7.57036 2.68667 7.57372Z" fill="white"/>
<path d="M22.8328 5.35786C23.7281 5.25683 24.8588 6.1858 24.855 7.42205C24.8507 8.66752 23.9624 9.59649 22.8254 9.58308C21.7434 9.57008 20.8836 8.65788 20.8727 7.47319C20.8614 6.28976 21.805 5.28743 22.8328 5.35828V5.35786ZM22.8387 8.76226C23.5391 8.7652 24.0723 8.19675 24.0672 7.45307C24.0622 6.73329 23.5403 6.16107 22.8847 6.15646C22.2018 6.15184 21.6616 6.71694 21.6588 7.4384C21.6561 8.19549 22.1589 8.75975 22.8387 8.76268V8.76226Z" fill="white"/>
<path d="M15.9572 5.35779C16.9059 5.25927 17.9738 6.25909 17.9555 7.44461C17.9372 8.64984 17.1269 9.5742 15.9696 9.58845C14.9091 9.60187 14.0017 8.67457 13.9865 7.47186C13.9717 6.31652 15.0046 5.23957 15.9572 5.35779ZM15.9279 8.76093C16.6377 8.7668 17.1791 8.21554 17.1814 7.48444C17.1842 6.75459 16.6525 6.15848 15.9981 6.15722C15.3 6.15554 14.7777 6.69381 14.7684 7.42449C14.7586 8.17739 15.2603 8.75548 15.9275 8.76093H15.9279Z" fill="white"/>
<path d="M23.0951 18.246C23.3855 18.5122 23.4864 18.8517 23.486 19.2529C23.4853 21.808 23.4935 24.3627 23.4954 26.9177C23.4954 27.0729 23.4927 27.2414 23.4385 27.3797C23.398 27.4837 23.2701 27.6187 23.1859 27.6149C23.0752 27.6099 22.9096 27.5063 22.8737 27.4028C22.7876 27.1529 22.7213 26.8788 22.7201 26.6142C22.7085 24.1648 22.7081 21.7149 22.7151 19.2651C22.7163 18.8869 22.7681 18.5071 23.0951 18.2464V18.246Z" fill="white"/>
<path d="M9.12139 4.99524C9.7727 5.17005 10.3351 5.32013 10.8972 5.47314C11.1412 5.53937 11.384 5.61106 11.6268 5.68274C11.683 5.69909 11.757 5.70706 11.7878 5.74898C11.9024 5.90367 12.0026 6.07051 12.1082 6.23275C11.9348 6.32791 11.741 6.53206 11.5914 6.49978C10.758 6.31868 9.93445 6.08309 9.10931 5.85923C8.88051 5.79719 8.73669 5.59052 8.78385 5.37337C8.81776 5.21616 9.02083 5.10088 9.121 4.99566L9.12139 4.99524Z" fill="white"/>
<path d="M13.2974 4.42172C12.8917 4.65647 12.6001 4.61497 12.2988 4.27248C11.7972 3.70193 11.2508 3.17666 10.7195 2.63588C10.546 2.4594 10.5016 2.25776 10.6337 2.04815C10.7421 1.87628 11.027 1.88466 11.2052 2.06492C11.8374 2.70505 12.4657 3.34938 13.085 4.00377C13.1817 4.10605 13.2222 4.26912 13.2978 4.42172H13.2974Z" fill="white"/>
<path d="M14.6652 3.48353C14.6063 3.42358 14.4376 3.3322 14.3931 3.1947C14.1577 2.46695 13.9336 1.73291 13.7558 0.987137C13.7231 0.850475 13.8915 0.56122 14.0248 0.507142C14.1312 0.463544 14.4099 0.631647 14.466 0.772921C14.6473 1.23028 14.7638 1.71782 14.8998 2.19572C14.9735 2.45437 15.0398 2.71554 15.1013 2.97796C15.1602 3.22656 14.9793 3.4915 14.6652 3.48395V3.48353Z" fill="white"/>
<path d="M15.5663 26.4897C15.5686 26.8607 15.3815 27.0921 15.0763 27.0963C14.784 27.1001 14.5891 26.8578 14.5872 26.4889C14.5852 26.1246 14.7805 25.881 15.0763 25.8789C15.3714 25.8768 15.5639 26.1166 15.5663 26.4901V26.4897Z" fill="white"/>
</g>
<defs>
<clipPath id="clip0_201_339">
<rect width="28" height="34" fill="white" transform="translate(0.5 0.5)"/>
</clipPath>
</defs>
</svg>
